<svg xmlns="http://www.w3.org/2000/svg" viewBox="0 0 680 300" font-family="sans-serif">
<rect x="0" y="0" width="680" height="300" fill="#fff"/>
<rect x="0.0" y="280.0" width="7.1" height="0.0" fill="#3b6ea5"/>
<rect x="7.6" y="193.2" width="7.1" height="86.8" fill="#3b6ea5"/>
<rect x="15.1" y="146.3" width="7.1" height="133.7" fill="#3b6ea5"/>
<rect x="22.7" y="179.2" width="7.1" height="100.8" fill="#3b6ea5"/>
<rect x="30.2" y="217.8" width="7.1" height="62.2" fill="#3b6ea5"/>
<rect x="37.8" y="167.6" width="7.1" height="112.4" fill="#3b6ea5"/>
<rect x="45.3" y="176.5" width="7.1" height="103.5" fill="#3b6ea5"/>
<rect x="52.9" y="244.7" width="7.1" height="35.3" fill="#3b6ea5"/>
<rect x="60.4" y="146.3" width="7.1" height="133.7" fill="#3b6ea5"/>
<rect x="68.0" y="231.2" width="7.1" height="48.8" fill="#3b6ea5"/>
<rect x="75.6" y="207.6" width="7.1" height="72.4" fill="#3b6ea5"/>
<rect x="83.1" y="160.2" width="7.1" height="119.8" fill="#3b6ea5"/>
<rect x="90.7" y="199.2" width="7.1" height="80.8" fill="#3b6ea5"/>
<rect x="98.2" y="199.2" width="7.1" height="80.8" fill="#3b6ea5"/>
<rect x="105.8" y="209.4" width="7.1" height="70.6" fill="#3b6ea5"/>
<rect x="113.3" y="185.8" width="7.1" height="94.2" fill="#3b6ea5"/>
<rect x="120.9" y="175.1" width="7.1" height="104.9" fill="#3b6ea5"/>
<rect x="128.4" y="246.6" width="7.1" height="33.4" fill="#3b6ea5"/>
<rect x="136.0" y="97.1" width="7.1" height="182.9" fill="#3b6ea5"/>
<rect x="143.6" y="222.9" width="7.1" height="57.1" fill="#3b6ea5"/>
<rect x="151.1" y="190.9" width="7.1" height="89.1" fill="#3b6ea5"/>
<rect x="158.7" y="196.0" width="7.1" height="84.0" fill="#3b6ea5"/>
<rect x="166.2" y="175.1" width="7.1" height="104.9" fill="#3b6ea5"/>
<rect x="173.8" y="161.1" width="7.1" height="118.9" fill="#3b6ea5"/>
<rect x="181.3" y="191.3" width="7.1" height="88.7" fill="#3b6ea5"/>
<rect x="188.9" y="103.6" width="7.1" height="176.4" fill="#3b6ea5"/>
<rect x="196.4" y="280.0" width="7.1" height="0.0" fill="#3b6ea5"/>
<rect x="204.0" y="108.7" width="7.1" height="171.3" fill="#3b6ea5"/>
<rect x="211.6" y="201.1" width="7.1" height="78.9" fill="#3b6ea5"/>
<rect x="219.1" y="145.8" width="7.1" height="134.2" fill="#3b6ea5"/>
<rect x="226.7" y="80.4" width="7.1" height="199.6" fill="#3b6ea5"/>
<rect x="234.2" y="194.1" width="7.1" height="85.9" fill="#3b6ea5"/>
<rect x="241.8" y="149.5" width="7.1" height="130.5" fill="#3b6ea5"/>
<rect x="249.3" y="193.6" width="7.1" height="86.4" fill="#3b6ea5"/>
<rect x="256.9" y="105.4" width="7.1" height="174.6" fill="#3b6ea5"/>
<rect x="264.4" y="145.8" width="7.1" height="134.2" fill="#3b6ea5"/>
<rect x="272.0" y="170.4" width="7.1" height="109.6" fill="#3b6ea5"/>
<rect x="279.6" y="119.4" width="7.1" height="160.6" fill="#3b6ea5"/>
<rect x="287.1" y="120.8" width="7.1" height="159.2" fill="#3b6ea5"/>
<rect x="294.7" y="142.6" width="7.1" height="137.4" fill="#3b6ea5"/>
<rect x="302.2" y="157.0" width="7.1" height="123.0" fill="#3b6ea5"/>
<rect x="309.8" y="194.1" width="7.1" height="85.9" fill="#3b6ea5"/>
<rect x="317.3" y="93.4" width="7.1" height="186.6" fill="#3b6ea5"/>
<rect x="324.9" y="141.2" width="7.1" height="138.8" fill="#3b6ea5"/>
<rect x="332.4" y="280.0" width="7.1" height="0.0" fill="#3b6ea5"/>
<rect x="340.0" y="20.0" width="7.1" height="260.0" fill="#3b6ea5"/>
<rect x="347.6" y="142.6" width="7.1" height="137.4" fill="#3b6ea5"/>
<rect x="355.1" y="93.8" width="7.1" height="186.2" fill="#3b6ea5"/>
<rect x="362.7" y="211.8" width="7.1" height="68.2" fill="#3b6ea5"/>
<rect x="370.2" y="200.1" width="7.1" height="79.9" fill="#3b6ea5"/>
<rect x="377.8" y="162.5" width="7.1" height="117.5" fill="#3b6ea5"/>
<rect x="385.3" y="172.3" width="7.1" height="107.7" fill="#3b6ea5"/>
<rect x="392.9" y="132.8" width="7.1" height="147.2" fill="#3b6ea5"/>
<rect x="400.4" y="196.9" width="7.1" height="83.1" fill="#3b6ea5"/>
<rect x="408.0" y="166.2" width="7.1" height="113.8" fill="#3b6ea5"/>
<rect x="415.6" y="129.6" width="7.1" height="150.4" fill="#3b6ea5"/>
<rect x="423.1" y="229.4" width="7.1" height="50.6" fill="#3b6ea5"/>
<rect x="430.7" y="171.4" width="7.1" height="108.6" fill="#3b6ea5"/>
<rect x="438.2" y="239.6" width="7.1" height="40.4" fill="#3b6ea5"/>
<rect x="445.8" y="114.7" width="7.1" height="165.3" fill="#3b6ea5"/>
<rect x="453.3" y="175.1" width="7.1" height="104.9" fill="#3b6ea5"/>
<rect x="460.9" y="200.6" width="7.1" height="79.4" fill="#3b6ea5"/>
<rect x="468.4" y="146.3" width="7.1" height="133.7" fill="#3b6ea5"/>
<rect x="476.0" y="280.0" width="7.1" height="0.0" fill="#3b6ea5"/>
<rect x="483.6" y="131.4" width="7.1" height="148.6" fill="#3b6ea5"/>
<rect x="491.1" y="196.0" width="7.1" height="84.0" fill="#3b6ea5"/>
<rect x="498.7" y="165.8" width="7.1" height="114.2" fill="#3b6ea5"/>
<rect x="506.2" y="204.8" width="7.1" height="75.2" fill="#3b6ea5"/>
<rect x="513.8" y="193.2" width="7.1" height="86.8" fill="#3b6ea5"/>
<rect x="521.3" y="200.6" width="7.1" height="79.4" fill="#3b6ea5"/>
<rect x="528.9" y="245.2" width="7.1" height="34.8" fill="#3b6ea5"/>
<rect x="536.4" y="58.5" width="7.1" height="221.5" fill="#3b6ea5"/>
<rect x="544.0" y="252.1" width="7.1" height="27.9" fill="#3b6ea5"/>
<rect x="551.6" y="176.5" width="7.1" height="103.5" fill="#3b6ea5"/>
<rect x="559.1" y="208.5" width="7.1" height="71.5" fill="#3b6ea5"/>
<rect x="566.7" y="201.1" width="7.1" height="78.9" fill="#3b6ea5"/>
<rect x="574.2" y="213.6" width="7.1" height="66.4" fill="#3b6ea5"/>
<rect x="581.8" y="196.9" width="7.1" height="83.1" fill="#3b6ea5"/>
<rect x="589.3" y="172.8" width="7.1" height="107.2" fill="#3b6ea5"/>
<rect x="596.9" y="200.6" width="7.1" height="79.4" fill="#3b6ea5"/>
<rect x="604.4" y="232.6" width="7.1" height="47.4" fill="#3b6ea5"/>
<rect x="612.0" y="151.9" width="7.1" height="128.1" fill="#3b6ea5"/>
<rect x="619.6" y="241.9" width="7.1" height="38.1" fill="#3b6ea5"/>
<rect x="627.1" y="185.8" width="7.1" height="94.2" fill="#3b6ea5"/>
<rect x="634.7" y="170.0" width="7.1" height="110.0" fill="#3b6ea5"/>
<rect x="642.2" y="224.8" width="7.1" height="55.2" fill="#3b6ea5"/>
<rect x="649.8" y="176.0" width="7.1" height="104.0" fill="#3b6ea5"/>
<rect x="657.3" y="145.4" width="7.1" height="134.6" fill="#3b6ea5"/>
<rect x="664.9" y="192.7" width="7.1" height="87.3" fill="#3b6ea5"/>
<rect x="672.4" y="280.0" width="7.1" height="0.0" fill="#3b6ea5"/>
<line x1="0.0" y1="0" x2="0.0" y2="280" stroke="#c33" stroke-width="1" stroke-dasharray="3,2"/>
<text x="2.0" y="12" fill="#c33" font-size="11">0°</text>
<line x1="340.0" y1="0" x2="340.0" y2="280" stroke="#c33" stroke-width="1" stroke-dasharray="3,2"/>
<text x="342.0" y="12" fill="#c33" font-size="11">45°(对角)</text>
<line x1="672.4" y1="0" x2="672.4" y2="280" stroke="#c33" stroke-width="1" stroke-dasharray="3,2"/>
<text x="674.4" y="12" fill="#c33" font-size="11">90°</text>
<text x="10" y="296" fill="#333" font-size="11">极角分布 mod 90° (全 19533 cells, 蓝=计数, 红虚线=轴/对角)</text>
</svg>